<?xml version="1.0" encoding="UTF-8"?>
<svg xmlns="http://www.w3.org/2000/svg" xmlns:xlink="http://www.w3.org/1999/xlink" width="50pt" height="50pt" viewBox="0 0 50 50" version="1.1">
<g id="surface1">
<rect x="0" y="0" width="50" height="50" style="fill:rgb(100%,98.039216%,40.784314%);fill-opacity:1;stroke:none;"/>
<path style=" stroke:none;fill-rule:nonzero;fill:rgb(91.372549%,54.509804%,28.235294%);fill-opacity:1;" d="M 25 25 L 27.429688 0 L 22.492188 0 Z M 25 25 "/>
<path style=" stroke:none;fill-rule:nonzero;fill:rgb(91.372549%,54.509804%,28.235294%);fill-opacity:1;" d="M 24.960938 25 L 22.53125 50 L 27.46875 50 Z M 24.960938 25 "/>
<path style=" stroke:none;fill-rule:nonzero;fill:rgb(91.372549%,54.509804%,28.235294%);fill-opacity:1;" d="M 24.960938 25.019531 L 49.960938 27.445312 L 49.960938 22.511719 Z M 24.960938 25.019531 "/>
<path style=" stroke:none;fill-rule:nonzero;fill:rgb(91.372549%,54.509804%,28.235294%);fill-opacity:1;" d="M 24.960938 24.980469 L -0.0390625 22.554688 L -0.0390625 27.488281 Z M 24.960938 24.980469 "/>
<path style=" stroke:none;fill-rule:nonzero;fill:rgb(91.372549%,54.509804%,28.235294%);fill-opacity:1;" d="M 24.988281 24.953125 L 3.234375 0 L 0 0 L -0.0390625 3.230469 Z M 24.988281 24.953125 "/>
<path style=" stroke:none;fill-rule:nonzero;fill:rgb(91.372549%,54.509804%,28.235294%);fill-opacity:1;" d="M 24.960938 24.976562 L 47 50 L 50 50 L 50 46.9375 Z M 24.960938 24.976562 "/>
<path style=" stroke:none;fill-rule:nonzero;fill:rgb(91.372549%,54.509804%,28.235294%);fill-opacity:1;" d="M 24.972656 24.996094 L 50 3.15625 L 50 0 L 48.085938 0 Z M 24.972656 24.996094 "/>
<path style=" stroke:none;fill-rule:nonzero;fill:rgb(91.372549%,54.509804%,28.235294%);fill-opacity:1;" d="M 24.945312 24.964844 L 0 46.722656 L -0.0390625 50 L 3.210938 50 Z M 24.945312 24.964844 "/>
<path style=" stroke:none;fill-rule:nonzero;fill:rgb(91.372549%,54.509804%,28.235294%);fill-opacity:1;" d="M 24.988281 25 L 16.449219 0 L 11.335938 -0.0507812 Z M 24.988281 25 "/>
<path style=" stroke:none;fill-rule:nonzero;fill:rgb(91.372549%,54.509804%,28.235294%);fill-opacity:1;" d="M 24.953125 25.015625 L 33.507812 50 L 38.59375 50 Z M 24.953125 25.015625 "/>
<path style=" stroke:none;fill-rule:nonzero;fill:rgb(91.372549%,54.509804%,28.235294%);fill-opacity:1;" d="M 24.960938 25.035156 L 50 16.46875 L 50 11.335938 Z M 24.960938 25.035156 "/>
<path style=" stroke:none;fill-rule:nonzero;fill:rgb(91.372549%,54.509804%,28.235294%);fill-opacity:1;" d="M 24.941406 24.996094 L 0 33.519531 L 0 38.65625 Z M 24.941406 24.996094 "/>
<path style=" stroke:none;fill-rule:nonzero;fill:rgb(91.372549%,54.509804%,28.235294%);fill-opacity:1;" d="M 24.957031 24.960938 L 0 12.660156 L -0.0390625 17.707031 Z M 24.957031 24.960938 "/>
<path style=" stroke:none;fill-rule:nonzero;fill:rgb(91.372549%,54.509804%,28.235294%);fill-opacity:1;" d="M 24.945312 24.996094 L 50 37.085938 L 49.960938 32.433594 Z M 24.945312 24.996094 "/>
<path style=" stroke:none;fill-rule:nonzero;fill:rgb(91.372549%,54.509804%,28.235294%);fill-opacity:1;" d="M 24.960938 25.003906 L 37.351562 0 L 32.21875 0 Z M 24.960938 25.003906 "/>
<path style=" stroke:none;fill-rule:nonzero;fill:rgb(91.372549%,54.509804%,28.235294%);fill-opacity:1;" d="M 24.925781 24.992188 L 12.71875 50 L 17.65625 50 Z M 24.925781 24.992188 "/>
</g>
</svg>
