<svg version="1.1" id="Layer_1" xmlns="http://www.w3.org/2000/svg" xmlns:xlink="http://www.w3.org/1999/xlink" x="0px"
    y="0px" viewBox="0 0 500 500" style="enable-background:new 0 0 500 500;" xml:space="preserve">
    <style type="text/css">
        .st0 {
            clip-path: url(#mask_1_);
        }

        .st1 {
            fill: none;
            stroke: #0f0f0f;
            stroke-width: 10;
            stroke-miterlimit: 10;
        }

        .st2 {
            fill: #F9B03C;
        }

        .st3 {
            fill: #333333;
        }

        .st4 {
            fill: #333333;
        }

        .st5 {
            fill: #bababa;
        }

        .st6 {
            
            stroke: #e3e3e3;
            stroke-width: 4;
            stroke-miterlimit: 10;
            opacity:1;
            
 
        }

        .st7 {
            fill: #F39323;
        }

        .star {
            fill: #FFFFFF;
        }
    </style>
    <g>
        <defs>
            <circle id="mask" cx="250" cy="250" r="196.5" />
        </defs>
        <use xlink:href="#mask" style="overflow:visible;fill:none;" />
        <clipPath id="mask_1_">
            <use xlink:href="#mask" style="overflow:visible;" />
        </clipPath>

        <g class="st0">

           
            

            <g id="rocket">
                <polygon class="st2" points="206.9,284.1 140,600 -104,360 " />
                <polygon class="st3"
                    points="318.4,172.3 291.9,270.7 265.5,369.1 208.3,282.3 121.5,225.2 220,198.7 		" />
                <polygon class="st4" points="169.5,293.7 179.5,256.1 217.1,246 244.7,273.5 234.6,311.1 197,321.2 		" />
                <g>
                    <path class="st3" d="M193.6,297.6c0.2,0.2,0.3,0.3,0.5,0.5C193.8,297.8,193.7,297.6,193.6,297.6
				C193.5,297.5,193.5,297.5,193.6,297.6z" />
                    <path class="st3" d="M350.3,203.2c9.6-34.9,11.8-67.7,8.5-71c-3.3-3.3-35.7-1.1-70.5,8.4c13.8,4.8,26.7,12.7,37.8,23.8
				C337.5,175.8,345.5,189.1,350.3,203.2z" />
                    <path class="st5"
                        d="M313.9,275.5c17.1-17.1,28.9-45.3,36.3-72.2c-4.7-14.1-12.8-27.5-24.1-38.8c-11.1-11.1-24.1-19-37.8-23.8
				c-27.1,7.4-55.5,19.3-72.7,36.5c-39.3,39.3-49.2,93.1-22.2,120.3c0.2,0.2,0.4,0.4,0.6,0.6C221.3,324.6,274.8,314.6,313.9,275.5z" />
                </g>
                <g>
                
                    <ellipse fill="url(#TrianglePattern)" fill-opacity="50%" transform="matrix(0.7071 -0.7071 0.7071 0.7071 -64.33 260.765)" class="st6" cx="282.6"
                        cy="208" rx="30.4" ry="30.4" />
                        
                    <text x="260" y="214" fill="#12034e" font-size= "1.5em" font-weight="500" font-family="monospace">$MST</text>
 
                    <defs>
                        <path d="M284.2, 343.4c-74.8,
0-135.5-60.7-135.5-135.5s60.7-135.5,135.5-135.5s135.5, 60.7, 135.5,
135.5 S318, 382.4, 243.2, 382.4z" id="textcircle">
                            <style>
                            .rotateText{
                                    
                                        font-size: 11px;
                                        font-family: Rock Salt, sans-serif;
                                        font-weight: 900;
                                        text-transform: uppercase;
                                        letter-spacing: 28px;
                                        fill: rgb(77, 46, 0, 0.8);
                                   
                                }
                            </style>
                        </path>

                    </defs>
                     <text dy="100" textLength="120">
                        <!-- textLength (essentially the circumference of the circle) is used as an alternative to letter-spacing for Firefox, which currently doesn't support letter-spacing for SVG -->
                        <!-- <textPath class="rotateText" xlink:href="#textcircle">MEME STARTER</textPath> -->
                    </text>
                </g>
                    </g>
            
         
        </g>
     ]
    </g>
    <defs>
    <pattern id="TrianglePattern" 
     patternUnits="userSpaceOnUse"
             x="-14" y="-22" width="66" height="66"
             viewBox="0 0 10 10" >
<g id="surface1">
<rect fill-opacity="100%" x="0" y="0" width="10" height="10" style="fill:rgb(100%,98.039216%,40.784314%);stroke:none;"/>
<path style=" stroke:none;fill-rule:nonzero;fill:rgb(91.372549%,54.509804%,28.235294%);fill-opacity:1;" d="M 5 5 L 5.484375 0 L 4.5 0 Z M 5 5 "/>
<path style=" stroke:none;fill-rule:nonzero;fill:rgb(91.372549%,54.509804%,28.235294%);fill-opacity:1;" d="M 4.992188 5 L 4.507812 10 L 5.492188 10 Z M 4.992188 5 "/>
<path style=" stroke:none;fill-rule:nonzero;fill:rgb(91.372549%,54.509804%,28.235294%);fill-opacity:1;" d="M 4.992188 5.003906 L 9.992188 5.488281 L 9.992188 4.503906 Z M 4.992188 5.003906 "/>
<path style=" stroke:none;fill-rule:nonzero;fill:rgb(91.372549%,54.509804%,28.235294%);fill-opacity:1;" d="M 4.992188 4.996094 L -0.0078125 4.511719 L -0.0078125 5.496094 Z M 4.992188 4.996094 "/>
<path style=" stroke:none;fill-rule:nonzero;fill:rgb(91.372549%,54.509804%,28.235294%);fill-opacity:1;" d="M 4.996094 4.992188 L 0.648438 0 L 0 0 L -0.0078125 0.644531 Z M 4.996094 4.992188 "/>
<path style=" stroke:none;fill-rule:nonzero;fill:rgb(91.372549%,54.509804%,28.235294%);fill-opacity:1;" d="M 4.992188 4.996094 L 9.398438 10 L 10 10 L 10 9.386719 Z M 4.992188 4.996094 "/>
<path style=" stroke:none;fill-rule:nonzero;fill:rgb(91.372549%,54.509804%,28.235294%);fill-opacity:1;" d="M 4.996094 5 L 10 0.632812 L 10 0 L 9.617188 0 Z M 4.996094 5 "/>
<path style=" stroke:none;fill-rule:nonzero;fill:rgb(91.372549%,54.509804%,28.235294%);fill-opacity:1;" d="M 4.988281 4.992188 L 0 9.34375 L -0.0078125 10 L 0.640625 10 Z M 4.988281 4.992188 "/>
<path style=" stroke:none;fill-rule:nonzero;fill:rgb(91.372549%,54.509804%,28.235294%);fill-opacity:1;" d="M 4.996094 5 L 3.289062 0 L 2.265625 -0.0117188 Z M 4.996094 5 "/>
<path style=" stroke:none;fill-rule:nonzero;fill:rgb(91.372549%,54.509804%,28.235294%);fill-opacity:1;" d="M 4.992188 5.003906 L 6.703125 10 L 7.71875 10 Z M 4.992188 5.003906 "/>
<path style=" stroke:none;fill-rule:nonzero;fill:rgb(91.372549%,54.509804%,28.235294%);fill-opacity:1;" d="M 4.992188 5.007812 L 10 3.292969 L 10 2.265625 Z M 4.992188 5.007812 "/>
<path style=" stroke:none;fill-rule:nonzero;fill:rgb(91.372549%,54.509804%,28.235294%);fill-opacity:1;" d="M 4.988281 5 L 0 6.703125 L 0 7.730469 Z M 4.988281 5 "/>
<path style=" stroke:none;fill-rule:nonzero;fill:rgb(91.372549%,54.509804%,28.235294%);fill-opacity:1;" d="M 4.992188 4.992188 L 0 2.53125 L -0.0078125 3.542969 Z M 4.992188 4.992188 "/>
<path style=" stroke:none;fill-rule:nonzero;fill:rgb(91.372549%,54.509804%,28.235294%);fill-opacity:1;" d="M 4.988281 5 L 10 7.417969 L 9.992188 6.488281 Z M 4.988281 5 "/>
<path style=" stroke:none;fill-rule:nonzero;fill:rgb(91.372549%,54.509804%,28.235294%);fill-opacity:1;" d="M 4.992188 5 L 7.46875 0 L 6.445312 0 Z M 4.992188 5 "/>
<path style=" stroke:none;fill-rule:nonzero;fill:rgb(91.372549%,54.509804%,28.235294%);fill-opacity:1;" d="M 4.984375 5 L 2.542969 10 L 3.53125 10 Z M 4.984375 5 "/>
</g></pattern> 
  </defs>
</svg>
